<?xml version="1.0" encoding="utf-8"?>
<!-- Generator: Adobe Illustrator 16.0.0, SVG Export Plug-In . SVG Version: 6.00 Build 0)  -->
<!DOCTYPE svg PUBLIC "-//W3C//DTD SVG 1.1//EN" "http://www.w3.org/Graphics/SVG/1.1/DTD/svg11.dtd">
<svg version="1.1" id="Layer_1" xmlns="http://www.w3.org/2000/svg" xmlns:xlink="http://www.w3.org/1999/xlink" x="0px" y="0px"
	 width="50px" height="25px" viewBox="0 0 50 25" enable-background="new 0 0 50 25" xml:space="preserve">
<g>
	<g>
		<g>
			<g>
				<g>
					<g>
						<path fill-rule="evenodd" clip-rule="evenodd" fill="#FF0812" d="M25.245,0c0.028,0.025,0.055,0.055,0.087,0.074
							c0.496,0.294,0.565,0.79,0.168,1.205c-0.028,0.029-0.055,0.06-0.08,0.087c0,0.568,0,1.13,0,1.733
							c0.853,0.063,1.688,0.189,2.504,0.424c0.807,0.233,1.577,0.562,2.337,0.941c0.132-0.211,0.263-0.395,0.364-0.594
							c0.041-0.082,0.029-0.196,0.026-0.294c-0.014-0.365,0.155-0.631,0.476-0.741c0.368-0.125,0.763,0.06,0.903,0.424
							c0.14,0.361-0.034,0.77-0.398,0.914c-0.112,0.044-0.237,0.058-0.393,0.094c-0.342,0.469-0.572,1.024-0.701,1.618
							c-0.073,0.338-0.098,0.688-0.142,1.033c-0.01,0.071-0.006,0.144-0.013,0.215c-0.031,0.33-0.143,0.457-0.386,0.442
							c-0.229-0.014-0.321-0.145-0.323-0.463c-0.006-0.567,0.076-1.123,0.233-1.668c0.024-0.088,0.048-0.176,0.082-0.297
							c-1.421-0.769-2.922-1.236-4.563-1.337c-0.008,0.13-0.019,0.229-0.019,0.328c-0.002,0.574,0.001,1.149-0.004,1.723
							c-0.001,0.111-0.016,0.227-0.053,0.33C25.3,6.334,25.15,6.407,25.004,6.392c-0.158-0.017-0.285-0.132-0.308-0.295
							c-0.011-0.08-0.006-0.164-0.006-0.246c-0.001-0.564,0-1.128,0-1.692c0-0.101,0-0.203,0-0.296
							c-0.784-0.197-3.415,0.377-4.592,1.195c0.056,0.209,0.115,0.424,0.169,0.64c0.122,0.49,0.184,0.987,0.171,1.492
							c-0.006,0.266-0.134,0.397-0.367,0.389c-0.211-0.007-0.327-0.135-0.348-0.389c-0.027-0.316-0.03-0.636-0.079-0.948
							c-0.112-0.717-0.358-1.384-0.773-1.974c-0.638-0.095-0.946-0.401-0.875-0.854c0.06-0.378,0.433-0.667,0.795-0.616
							c0.454,0.063,0.688,0.428,0.615,0.962c0.123,0.194,0.25,0.392,0.39,0.612c1.518-0.815,3.144-1.216,4.872-1.283
							c0-0.582,0-1.142,0-1.731c-0.028-0.024-0.078-0.06-0.121-0.104c-0.375-0.388-0.283-0.931,0.198-1.177
							c0.044-0.023,0.087-0.05,0.13-0.075C24.999,0,25.122,0,25.245,0z"/>
					</g>
					<g>
						<g>
							<path fill-rule="evenodd" clip-rule="evenodd" fill="#FF0812" d="M25.032,7.167c1.216,0.019,2.42,0.107,3.597,0.423
								c0.334,0.089,0.657,0.226,0.977,0.362c0.158,0.067,0.307,0.169,0.438,0.28c0.507,0.422,0.516,0.964,0.017,1.389
								c-0.161,0.138-0.353,0.248-0.543,0.343c-0.51,0.253-1.059,0.386-1.613,0.485c-1.073,0.192-2.157,0.274-3.245,0.24
								c-1.159-0.036-2.315-0.124-3.431-0.473c-0.272-0.085-0.539-0.196-0.797-0.318c-0.156-0.073-0.303-0.176-0.433-0.291
								c-0.476-0.418-0.474-0.978,0.03-1.365c0.255-0.197,0.556-0.349,0.856-0.47c0.717-0.289,1.479-0.412,2.244-0.489
								C23.761,7.22,24.398,7.204,25.032,7.167z M20.348,8.979c0.128,0.094,0.238,0.205,0.37,0.267
								c0.25,0.116,0.507,0.223,0.771,0.299c0.81,0.236,1.642,0.336,2.481,0.395c1.399,0.096,2.785,0.019,4.157-0.272
								c0.48-0.102,0.956-0.236,1.379-0.501c0.254-0.16,0.26-0.307-0.003-0.455c-0.247-0.139-0.514-0.255-0.784-0.342
								c-1.153-0.372-2.35-0.456-3.55-0.475c-0.953-0.016-1.905,0.056-2.845,0.232c-0.514,0.096-1.021,0.219-1.498,0.442
								C20.653,8.648,20.469,8.725,20.348,8.979z"/>
						</g>
					</g>
				</g>
			</g>
			<g>
				<g>
					<path fill-rule="evenodd" clip-rule="evenodd" d="M0,19.521c0.041-0.167,0.079-0.336,0.124-0.503
						c0.124-0.463,0.343-0.872,0.681-1.219c0.771-0.787,2.274-0.913,3.132-0.006c0.046,0.05,0.101,0.092,0.183,0.166
						c0-0.234,0-0.641,0-0.641h1.387l0.017,5.437H4.126c0,0,0-0.406,0-0.659c-0.096,0.086-0.15,0.128-0.198,0.177
						c-0.978,1.005-2.669,0.755-3.407-0.344c-0.238-0.354-0.383-0.744-0.46-1.162C0.048,20.7,0.021,20.635,0,20.568
						C0,20.22,0,19.871,0,19.521z M4.116,20.043c0-0.266,0.008-0.532-0.005-0.799c-0.004-0.095-0.031-0.212-0.092-0.277
						c-0.382-0.409-0.854-0.594-1.413-0.495c-0.511,0.091-0.834,0.41-1.008,0.887c-0.168,0.462-0.158,0.927,0.014,1.384
						c0.137,0.359,0.376,0.631,0.741,0.778c0.533,0.216,1.253,0.05,1.641-0.375c0.089-0.097,0.127-0.202,0.123-0.334
						C4.111,20.556,4.116,20.3,4.116,20.043z"/>
				</g>
			</g>
			<g>
				<g>
					<path fill-rule="evenodd" clip-rule="evenodd" d="M12.528,24.163c0.214-0.34,0.419-0.667,0.62-0.988
						c0.041,0.011,0.065,0.011,0.078,0.022c0.594,0.56,1.311,0.689,2.085,0.565c0.656-0.105,1.044-0.564,1.075-1.23
						c0.008-0.183,0.001-0.367,0.001-0.594c-0.077,0.063-0.131,0.099-0.173,0.144c-1.006,1.067-3.013,0.794-3.646-0.701
						c-0.394-0.928-0.391-1.88-0.021-2.815c0.642-1.624,2.758-1.802,3.691-0.757c0.032,0.036,0.085,0.065,0.153,0.125
						c0.011-0.228,0-0.619,0-0.619h1.441c0,0,0.006,3.453,0,5.063c-0.002,0.245-0.017,0.493-0.067,0.732
						c-0.169,0.794-0.645,1.346-1.401,1.622c-0.945,0.346-1.905,0.36-2.861,0.029C13.143,24.636,12.823,24.438,12.528,24.163z
						 M16.395,19.206c0.004-0.136-0.047-0.235-0.144-0.323c-0.201-0.183-0.432-0.314-0.693-0.384
						c-0.717-0.189-1.537,0.094-1.737,1.017c-0.075,0.345-0.068,0.695,0.045,1.033c0.158,0.463,0.478,0.767,0.957,0.864
						c0.538,0.109,1.014-0.041,1.421-0.411c0.105-0.096,0.157-0.203,0.151-0.35C16.386,20.416,16.387,19.452,16.395,19.206z"/>
				</g>
			</g>
			<g>
				<path fill-rule="evenodd" clip-rule="evenodd" d="M30.861,22.756c0,0,0.004-2.287,0-3.251c0-0.163-0.015-0.329-0.054-0.486
					c-0.071-0.298-0.279-0.476-0.573-0.537c-0.523-0.109-0.993,0.009-1.403,0.362c-0.15,0.129-0.214,0.271-0.212,0.479
					c0.01,1.025,0,3.434,0,3.434H27.18V15.23c0,0,0.938,0,1.435,0c0,0.894,0,1.781,0,2.72c0.128-0.103,0.214-0.172,0.301-0.238
					c0.688-0.532,1.463-0.667,2.296-0.463c0.569,0.141,0.911,0.53,1.041,1.098c0.041,0.179,0.053,0.366,0.055,0.55
					c0.006,1.21,0,3.859,0,3.859H30.861z"/>
			</g>
			<g>
				<polygon fill-rule="evenodd" clip-rule="evenodd" points="46.137,19.645 48.16,17.311 49.928,17.311 47.783,19.776 50,22.746 
					48.199,22.746 46.762,20.671 46.137,21.306 46.137,22.746 44.682,22.746 44.682,15.228 46.137,15.228 				"/>
			</g>
			<g>
				<g>
					<path fill-rule="evenodd" clip-rule="evenodd" d="M37.037,17.894c0-0.182,0-0.552,0-0.552h1.434v5.387H37.06
						c0,0,0-0.371,0-0.613c-0.091,0.071-0.146,0.106-0.191,0.152c-0.997,1.023-2.741,0.771-3.479-0.432
						c-0.229-0.373-0.365-0.778-0.419-1.209c-0.085-0.69-0.053-1.372,0.226-2.022c0.527-1.232,1.702-1.638,2.769-1.358
						C36.374,17.354,36.696,17.603,37.037,17.894z M37.05,19.416c0.041-0.336-0.119-0.548-0.387-0.7
						c-0.149-0.085-0.307-0.17-0.472-0.217c-0.729-0.21-1.414,0.153-1.667,0.872c-0.125,0.356-0.137,0.719-0.062,1.089
						c0.247,1.226,1.538,1.48,2.381,0.761c0.141-0.12,0.216-0.259,0.205-0.453C37.049,20.292,37.05,19.979,37.05,19.416z"/>
				</g>
			</g>
			<g>
				<g>
					<path fill-rule="evenodd" clip-rule="evenodd" d="M23.64,22.144c-0.413,0.358-0.87,0.55-1.367,0.661
						c-0.665,0.148-1.326,0.152-1.971-0.079c-1.095-0.394-1.692-1.193-1.821-2.334c-0.094-0.827,0.095-1.593,0.641-2.243
						c0.517-0.613,1.182-0.935,1.98-0.979c0.819-0.046,1.545,0.17,2.127,0.771c0.483,0.5,0.716,1.117,0.78,1.798
						c0.023,0.242,0.004,0.487,0.004,0.759c-1.343,0-2.672,0-4.029,0c0.059,0.47,0.295,0.782,0.662,0.999
						c0.337,0.2,0.71,0.262,1.098,0.216c0.456-0.054,0.874-0.21,1.253-0.512C23.21,21.514,23.417,21.817,23.64,22.144z
						 M22.63,19.488c-0.089-0.786-0.646-1.201-1.509-1.139c-0.642,0.047-1.147,0.561-1.12,1.139
						C20.877,19.488,21.752,19.488,22.63,19.488z"/>
				</g>
			</g>
			<g>
				<path fill-rule="evenodd" clip-rule="evenodd" d="M11.677,22.756h-1.448c0,0,0.006-2.273,0-3.248
					c-0.001-0.162-0.029-0.328-0.068-0.484c-0.079-0.31-0.297-0.485-0.604-0.546c-0.505-0.101-0.951,0.021-1.348,0.352
					c-0.169,0.142-0.246,0.299-0.243,0.528c0.012,1.016,0,3.398,0,3.398H6.549v-5.437h1.405c0,0,0,0.38,0,0.631
					c0.109-0.079,0.171-0.119,0.228-0.166c0.697-0.577,1.493-0.748,2.364-0.54c0.597,0.143,0.946,0.549,1.078,1.14
					c0.041,0.178,0.052,0.365,0.053,0.549C11.682,20.144,11.677,22.756,11.677,22.756z"/>
			</g>
			<g>
				<path fill-rule="evenodd" clip-rule="evenodd" d="M44.176,18.145c-0.312,0.294-0.613,0.581-0.921,0.872
					c-0.04-0.037-0.071-0.063-0.1-0.093c-0.431-0.488-0.972-0.583-1.565-0.399c-0.58,0.179-0.867,0.615-0.964,1.197
					c-0.062,0.364-0.021,0.716,0.126,1.052c0.402,0.912,1.601,1.142,2.314,0.446c0.057-0.057,0.101-0.127,0.163-0.207
					c0.33,0.311,0.627,0.59,0.933,0.877c-0.122,0.235-0.31,0.391-0.508,0.532c-0.551,0.391-1.177,0.524-1.837,0.476
					c-1.104-0.08-1.957-0.571-2.437-1.602c-0.523-1.121-0.284-2.512,0.558-3.335c0.488-0.478,1.082-0.729,1.759-0.783
					c0.494-0.038,0.981-0.008,1.449,0.182C43.556,17.523,43.898,17.769,44.176,18.145z"/>
			</g>
			<g>
				<rect x="24.634" y="15.229" fill-rule="evenodd" clip-rule="evenodd" width="1.389" height="7.526"/>
			</g>
		</g>
	</g>
</g>
</svg>
