<?xml version="1.0" encoding="utf-8"?>
<!-- Generator: Adobe Illustrator 16.0.0, SVG Export Plug-In . SVG Version: 6.00 Build 0)  -->
<!DOCTYPE svg PUBLIC "-//W3C//DTD SVG 1.1//EN" "http://www.w3.org/Graphics/SVG/1.1/DTD/svg11.dtd">
<svg version="1.1" id="Layer_1" xmlns="http://www.w3.org/2000/svg" xmlns:xlink="http://www.w3.org/1999/xlink" x="0px" y="0px"
	 width="50px" height="50px" viewBox="0 0 50 50" enable-background="new 0 0 50 50" xml:space="preserve">
<g>
	<circle fill="#FFFFFF" cx="25" cy="25" r="25"/>
	<path fill="#E74C3B" d="M21.336,39.951c0,3.662-2.263,6.562-8.679,6.794c-3.758-2.136-6.909-5.222-9.126-8.929
		c1.157-2.857,4.771-5.031,8.901-4.988c1.176,0.014,2.266,0.202,3.26,0.525c2.73,1.897,4.932,3.081,5.484,5.246
		C21.281,39.037,21.336,39.486,21.336,39.951z M24.998,0c-7.223,0-13.73,3.065-18.293,7.964c1.805-0.999,3.934-1.595,6.197-1.595
		c3.275,0,12.522,0,12.522,0l-2.799,2.937h-3.287c2.318,1.327,3.553,4.067,3.553,7.083c0,2.769-1.537,4.998-3.703,6.69
		c-2.113,1.65-2.514,2.341-2.514,3.747c0,1.198,2.525,2.982,3.688,3.855c4.044,3.034,4.861,4.941,4.861,8.731
		c0,3.845-3.364,7.675-9.076,8.974C18.9,49.428,21.885,50,24.998,50C38.808,50,50,38.808,50,25C50,11.191,38.808,0,24.998,0z
		 M37.5,18.748V25h-3.125v-6.252h-6.252v-3.124h6.252V9.375H37.5v6.249h6.25v3.124H37.5z M17.857,16.574
		c0.584,4.433-1.359,7.289-4.73,7.185c-3.376-0.102-6.586-3.195-7.167-7.626c-0.582-4.435,1.68-7.828,5.056-7.727
		C14.39,8.508,17.276,12.141,17.857,16.574z M10.784,31.35c-3.646,0-6.747,1.26-8.929,3.12C0.66,31.549,0,28.351,0,25
		c0-2.771,0.45-5.437,1.283-7.932c0.36,4.858,3.777,8.604,9.423,8.604c0.417,0,0.817-0.021,1.214-0.049
		c-0.389,0.743-0.664,1.573-0.664,2.44c0,1.466,0.804,2.299,1.8,3.269C12.303,31.332,11.578,31.35,10.784,31.35z"/>
</g>
</svg>
