<?xml version="1.0" encoding="utf-8"?>
<!-- Generator: Adobe Illustrator 16.0.0, SVG Export Plug-In . SVG Version: 6.00 Build 0)  -->
<!DOCTYPE svg PUBLIC "-//W3C//DTD SVG 1.1//EN" "http://www.w3.org/Graphics/SVG/1.1/DTD/svg11.dtd">
<svg version="1.1" id="Layer_1" xmlns="http://www.w3.org/2000/svg" xmlns:xlink="http://www.w3.org/1999/xlink" x="0px" y="0px"
	 width="126px" height="50px" viewBox="0 0 126 50" enable-background="new 0 0 126 50" xml:space="preserve">
<g>
	<g>
		<g>
			<path fill="#505460" d="M110.361,43.297c-0.531,0-1.01-0.022-1.436-0.068c-0.428-0.045-0.818-0.132-1.166-0.263
				c-0.349-0.126-0.658-0.268-0.924-0.414c-0.264-0.15-0.5-0.361-0.705-0.642c-0.208-0.279-0.383-0.548-0.525-0.804
				c-0.143-0.26-0.263-0.607-0.358-1.04c-0.099-0.433-0.175-0.845-0.233-1.233c-0.057-0.388-0.104-0.889-0.136-1.503
				c-0.033-0.616-0.052-1.187-0.058-1.719c-0.008-0.53-0.012-1.197-0.012-2.001V16.355c-0.762-0.051-3.281-0.158-3.611-0.166
				c-0.33-0.005-0.596-0.005-0.796,0c-0.2,0.008-0.352,0.015-0.458,0.021c-0.102,0.005-0.16,0.008-0.172,0.008
				c-1.451,0-2.471,0.352-3.059,1.049c-0.588,0.699-0.908,1.955-0.961,3.765c0,0.079-0.002,0.195-0.009,0.352
				c-0.007,0.153-0.01,0.278-0.01,0.369h4.833v2.29h-4.833v19.021h-3.261V24.043h-3.126v-2.29h3.126v-0.584
				c0.039-1.436,0.223-2.642,0.554-3.62c0.329-0.977,0.812-1.742,1.446-2.3c0.632-0.557,1.36-0.951,2.184-1.184
				c0.821-0.232,1.814-0.349,2.978-0.349c0.519,0,3.442,0.142,8.437,0.426v20.188c0,2.575,0.156,4.26,0.466,5.055
				c0.31,0.796,1.178,1.193,2.601,1.193c0.271,0,0.744-0.022,1.416-0.077l0.216,2.543C111.281,43.214,110.479,43.297,110.361,43.297
				z"/>
			<path fill="#505460" d="M124.264,21.577c0.583,0,1.112,0.038,1.592,0.117l-0.117,2.989c-0.596-0.105-1.112-0.155-1.553-0.155
				c-1.812,0-3.281,0.629-4.416,1.893c-1.132,1.262-1.699,2.824-1.699,4.686v11.958h-3.24c-0.013-13.068-0.02-20.167-0.02-21.292
				h2.698l0.31,3.822c0.738-1.204,1.676-2.173,2.814-2.912C121.772,21.944,122.982,21.577,124.264,21.577z"/>
			<path fill="#505460" d="M62.523,43.513c-3.094,0-5.529-0.984-7.309-2.954c-1.778-1.964-2.669-4.656-2.669-8.07
				c0-3.303,0.859-5.978,2.582-8.029c1.721-2.049,3.987-3.095,6.793-3.134c2.642,0,4.734,0.9,6.279,2.707
				c1.548,1.804,2.321,4.216,2.321,7.23c0,0.155-0.005,0.441-0.011,0.854c-0.007,0.415-0.011,0.714-0.011,0.894H55.883
				c0.039,2.42,0.663,4.309,1.873,5.658c1.211,1.353,2.837,2.027,4.883,2.027c2.252,0,4.51-0.594,6.774-1.785l0.505,2.623
				C67.756,42.852,65.293,43.513,62.523,43.513z M65.793,25.701c-0.951-1.131-2.255-1.698-3.911-1.698
				c-1.655,0-3.009,0.586-4.057,1.757c-1.048,1.17-1.664,2.774-1.844,4.805H67.22C67.22,28.456,66.743,26.835,65.793,25.701z"/>
			<path fill="#505460" d="M85.603,43.064c-0.192-0.826-0.381-1.72-0.562-2.679c-1.177,1.179-2.283,1.992-3.32,2.447
				c-1.033,0.452-2.252,0.68-3.648,0.68c-1.993,0-3.595-0.522-4.804-1.564c-1.212-1.042-1.815-2.539-1.815-4.495
				c0-2.173,0.825-3.782,2.475-4.831c1.65-1.047,4.027-1.701,7.133-1.96c0.428-0.039,1.07-0.094,1.932-0.166
				c0.86-0.072,1.505-0.127,1.931-0.165v-1.882c0-1.502-0.348-2.614-1.048-3.34c-0.698-0.724-1.798-1.086-3.299-1.086
				c-2.096,0-4.212,0.518-6.348,1.554c-0.064-0.157-0.232-0.606-0.504-1.351c-0.271-0.743-0.415-1.128-0.427-1.156
				c0.944-0.528,2.065-0.954,3.367-1.27c1.302-0.316,2.622-0.476,3.97-0.476c2.652,0,4.564,0.579,5.735,1.736
				c1.171,1.158,1.759,3.129,1.759,5.911v14.092H85.603z M78.557,40.891c1.539,0,2.896-0.424,4.066-1.271
				c1.172-0.848,1.925-1.989,2.263-3.426v-3.592c-0.065,0-0.455,0.034-1.175,0.097c-0.719,0.066-1.188,0.104-1.407,0.117
				c-2.808,0.246-4.767,0.706-5.87,1.379c-1.109,0.674-1.662,1.753-1.662,3.24c0,1.14,0.338,2.001,1.01,2.583
				C76.455,40.599,77.381,40.891,78.557,40.891z"/>
			<g>
				<path fill="#505460" d="M49.331,43.453c-2.075,0-3.542-0.557-4.405-1.671c-0.864-1.117-1.294-3.056-1.294-5.818V13.436
					l3.229-0.194V34.68c0,0.881,0.009,1.588,0.029,2.12c0.019,0.532,0.068,1.056,0.146,1.565c0.079,0.514,0.181,0.899,0.311,1.157
					c0.131,0.261,0.318,0.497,0.564,0.712c0.248,0.214,0.542,0.357,0.885,0.428c0.345,0.072,0.769,0.107,1.275,0.107
					c0.415,0,1.231-0.077,2.451-0.233l0.173,2.586C51.361,43.344,50.238,43.453,49.331,43.453z"/>
			</g>
		</g>
	</g>
	<g>
		<path fill="#2ECC71" d="M28.669,9.882c-4.865-6.204-10.036-9.863-10.036-9.863V20.84c0,0,1.229,25.698,1.959,29.179
			c9.264-0.979,16.482-8.822,16.482-18.354C37.075,22.914,32.993,15.394,28.669,9.882z"/>
		<path fill="#27AE60" d="M8.597,9.882c4.865-6.204,10.036-9.863,10.036-9.863V20.84c0,0-1.229,25.698-1.959,29.179
			C7.41,49.039,0.192,41.196,0.192,31.664C0.192,22.914,4.273,15.394,8.597,9.882z"/>
	</g>
</g>
</svg>
