<?xml version="1.0" encoding="utf-8"?>
<!-- Generator: Adobe Illustrator 16.0.0, SVG Export Plug-In . SVG Version: 6.00 Build 0)  -->
<!DOCTYPE svg PUBLIC "-//W3C//DTD SVG 1.1//EN" "http://www.w3.org/Graphics/SVG/1.1/DTD/svg11.dtd">
<svg version="1.1" id="Layer_1" xmlns="http://www.w3.org/2000/svg" xmlns:xlink="http://www.w3.org/1999/xlink" x="0px" y="0px"
	 width="50px" height="35px" viewBox="0 0 50 35" enable-background="new 0 0 50 35" xml:space="preserve">
<g>
	<path d="M9.452,20.217c0.116,0.468,0.079,0.86-0.112,1.18c-0.192,0.318-0.513,0.533-0.962,0.646
		c-0.452,0.113-0.839,0.072-1.158-0.123c-0.32-0.195-0.537-0.523-0.652-0.983l-1.263-5.066l2.066-0.515L5.787,8.999l2.659-0.663
		l-0.52-2.084L0,8.228l0.52,2.084l2.659-0.663l1.564,6.274l-2.061,0.514l1.253,5.028c0.104,0.414,0.303,0.869,0.598,1.366
		c0.183,0.309,0.449,0.587,0.798,0.834c0.35,0.247,0.708,0.415,1.077,0.504c0.174,0.043,0.363,0.067,0.566,0.075l-2.203,0.549
		l2.104,8.439l2.608-0.65l-0.852-3.413l2.85-0.711l0.851,3.414l2.62-0.653l-2.104-8.439l-2.171,0.541
		c0.053-0.032,0.104-0.064,0.153-0.098c0.331-0.226,0.621-0.545,0.871-0.96c0.249-0.414,0.396-0.862,0.441-1.345
		c0.045-0.481,0.005-0.972-0.119-1.47l-1.254-5.028l-2.603,0.649L9.452,20.217z M10.966,26.386l-2.85,0.711l-0.713-2.859
		c0.1-0.007,0.202-0.016,0.308-0.029c0.5-0.063,0.955-0.146,1.365-0.249c0.442-0.11,0.837-0.247,1.182-0.411L10.966,26.386z"/>
	<path d="M32.962,8.887l-1.057,9.142l-2.745,0.685c0.082-0.032,0.167-0.064,0.259-0.101c0.428-0.168,0.734-0.343,0.922-0.523
		c0.302-0.292,0.512-0.637,0.628-1.037s0.12-0.819,0.011-1.256c-0.134-0.537-0.389-0.948-0.763-1.231s-0.883-0.423-1.525-0.417
		c0.364-0.238,0.621-0.501,0.769-0.791c0.222-0.435,0.271-0.901,0.146-1.4c-0.148-0.595-0.491-1.04-1.026-1.334
		c-0.341-0.187-0.737-0.272-1.189-0.259l0.751-0.187l-0.477-1.911l-4.502,1.122l-0.415-1.664l4.059-1.012l-0.429-1.722l-4.059,1.012
		L21.984,4.66l4.375-1.091L25.91,1.768L18.922,3.51l2.104,8.439l0.668-0.167l2.084,8.358l1.058-0.264L24.48,26.33l-3.368-5.524
		l1.825-0.455l-1.873-2.131c-0.092-0.107-0.257-0.252-0.496-0.433c-0.238-0.181-0.414-0.294-0.527-0.34
		c-0.168-0.068-0.42-0.115-0.757-0.142c0.366-0.185,0.644-0.373,0.833-0.563c0.297-0.298,0.503-0.642,0.617-1.031
		c0.115-0.39,0.114-0.818-0.002-1.287c-0.134-0.537-0.378-0.96-0.732-1.27s-0.762-0.479-1.222-0.512
		c-0.173-0.012-0.369-0.007-0.59,0.013l1.11-0.277L17.195,3.94l-2.62,0.653l0.736,2.953l-2.849,0.71l-0.736-2.953l-2.608,0.65
		l2.104,8.439l1.329-0.332l4.168,16.716l2.619-0.653l-2.938-11.783l0.23-0.058c0.237-0.06,0.467-0.047,0.688,0.037
		c0.163,0.064,0.375,0.242,0.635,0.532l1.973,2.161l-1.586,0.396l5.291,7.645l2.826-0.704l1.02-9.132l0.802-0.2
		c0.022-0.006,0.048-0.013,0.074-0.021l2.085,8.359l7.115-1.773l-0.477-1.911l-4.502,1.122l-0.415-1.664l4.059-1.012l-0.429-1.721
		l-4.059,1.012l-0.335-1.342l4.375-1.091l-0.449-1.802l-0.762,0.19l0.061-1.408l2.961-0.738l0.77,1.288l2.73-0.681l-5.275-7.648
		L32.962,8.887z M13.81,13.662l-0.83-3.333l2.85-0.71l0.83,3.333L13.81,13.662z M18.123,15.815c-0.074,0.169-0.193,0.292-0.357,0.37
		c-0.322,0.162-0.543,0.258-0.662,0.288l-1.1,0.274l-0.428-1.715l1.146-0.286c0.476-0.119,0.818-0.126,1.027-0.024
		c0.209,0.103,0.348,0.291,0.416,0.563C18.211,15.469,18.196,15.646,18.123,15.815z M27.147,12.984
		c0.066,0.265,0.037,0.487-0.087,0.667c-0.124,0.18-0.39,0.321-0.797,0.422l-1.134,0.283l-0.399-1.6l1.151-0.287
		c0.396-0.099,0.689-0.099,0.884,0C26.959,12.566,27.087,12.739,27.147,12.984z M27.286,17.34l-1.33,0.332l-0.426-1.709l1.324-0.33
		c0.456-0.114,0.795-0.118,1.015-0.012s0.361,0.284,0.424,0.533c0.066,0.269,0.028,0.506-0.116,0.711S27.735,17.228,27.286,17.34z
		 M34.732,13.991l0.165-3.263l1.688,2.801L34.732,13.991z"/>
	<polygon points="45.438,5.776 46.602,10.446 42.26,6.569 39.824,7.176 41.929,15.615 44.381,15.004 43.226,10.37 47.541,14.216 
		50,13.603 47.896,5.164 	"/>
</g>
</svg>
