<?xml version="1.0" encoding="utf-8"?>
<!-- Generator: Adobe Illustrator 16.0.0, SVG Export Plug-In . SVG Version: 6.00 Build 0)  -->
<!DOCTYPE svg PUBLIC "-//W3C//DTD SVG 1.1//EN" "http://www.w3.org/Graphics/SVG/1.1/DTD/svg11.dtd">
<svg version="1.1" id="Layer_1" xmlns="http://www.w3.org/2000/svg" xmlns:xlink="http://www.w3.org/1999/xlink" x="0px" y="0px"
	 width="50px" height="50px" viewBox="0 0 50 50" enable-background="new 0 0 50 50" xml:space="preserve">
<g>
	<path fill="#00ADEF" d="M50,25.001C50,38.809,38.806,50,25.001,50C11.189,50,0,38.809,0,25.001S11.189,0,25.001,0
		C38.806,0,50,11.193,50,25.001z"/>
	<path fill="#FFFFFF" d="M40.052,16.743c-1.044,0.461-2.163,0.772-3.338,0.914c1.197-0.721,2.12-1.858,2.554-3.213
		c-1.121,0.664-2.365,1.148-3.688,1.409c-1.063-1.13-2.571-1.836-4.242-1.836c-3.207,0-5.81,2.601-5.81,5.813
		c0,0.454,0.053,0.896,0.151,1.319c-4.828-0.24-9.11-2.554-11.975-6.068c-0.501,0.859-0.786,1.855-0.786,2.919
		c0,2.016,1.025,3.795,2.584,4.837c-0.951-0.028-1.848-0.291-2.632-0.726c-0.002,0.022-0.002,0.05-0.002,0.075
		c0,2.814,2.004,5.159,4.662,5.694c-0.488,0.134-1.002,0.203-1.531,0.203c-0.373,0-0.74-0.036-1.094-0.103
		c0.739,2.307,2.887,3.986,5.428,4.034c-1.988,1.559-4.494,2.487-7.216,2.487c-0.467,0-0.932-0.027-1.387-0.083
		c2.573,1.649,5.624,2.611,8.907,2.611c10.686,0,16.528-8.854,16.528-16.531c0-0.252-0.006-0.504-0.015-0.749
		C38.287,18.929,39.272,17.907,40.052,16.743z"/>
</g>
</svg>
